<svg id="visual" viewBox="0 0 900 600" width="900" height="600" xmlns="http://www.w3.org/2000/svg" xmlns:xlink="http://www.w3.org/1999/xlink" version="1.1"><rect x="0" y="0" width="900" height="600" fill="#ffffff"></rect><path d="M0 233L16.7 232.7C33.3 232.3 66.7 231.7 100 224.7C133.3 217.7 166.7 204.3 200 207C233.3 209.7 266.7 228.3 300 232.7C333.3 237 366.7 227 400 220.7C433.3 214.3 466.7 211.7 500 212C533.3 212.3 566.7 215.7 600 216.2C633.3 216.7 666.7 214.3 700 216.5C733.3 218.7 766.7 225.3 800 225.8C833.3 226.3 866.7 220.7 883.3 217.8L900 215L900 0L883.3 0C866.7 0 833.3 0 800 0C766.7 0 733.3 0 700 0C666.7 0 633.3 0 600 0C566.7 0 533.3 0 500 0C466.7 0 433.3 0 400 0C366.7 0 333.3 0 300 0C266.7 0 233.3 0 200 0C166.7 0 133.3 0 100 0C66.7 0 33.3 0 16.7 0L0 0Z" fill="#7140a5"></path><path d="M0 155L16.7 160.8C33.3 166.7 66.7 178.3 100 185.3C133.3 192.3 166.7 194.7 200 196.7C233.3 198.7 266.7 200.3 300 194.8C333.3 189.3 366.7 176.7 400 171.5C433.3 166.3 466.7 168.7 500 169C533.3 169.3 566.7 167.7 600 171.5C633.3 175.3 666.7 184.7 700 185.8C733.3 187 766.7 180 800 181.3C833.3 182.7 866.7 192.3 883.3 197.2L900 202L900 0L883.3 0C866.7 0 833.3 0 800 0C766.7 0 733.3 0 700 0C666.7 0 633.3 0 600 0C566.7 0 533.3 0 500 0C466.7 0 433.3 0 400 0C366.7 0 333.3 0 300 0C266.7 0 233.3 0 200 0C166.7 0 133.3 0 100 0C66.7 0 33.3 0 16.7 0L0 0Z" fill="#804eb5"></path><path d="M0 143L16.7 144.5C33.3 146 66.7 149 100 148C133.3 147 166.7 142 200 138.8C233.3 135.7 266.7 134.3 300 136.5C333.3 138.7 366.7 144.3 400 144C433.3 143.7 466.7 137.3 500 131C533.3 124.7 566.7 118.3 600 118.2C633.3 118 666.7 124 700 123.8C733.3 123.7 766.7 117.3 800 119.3C833.3 121.3 866.7 131.7 883.3 136.8L900 142L900 0L883.3 0C866.7 0 833.3 0 800 0C766.7 0 733.3 0 700 0C666.7 0 633.3 0 600 0C566.7 0 533.3 0 500 0C466.7 0 433.3 0 400 0C366.7 0 333.3 0 300 0C266.7 0 233.3 0 200 0C166.7 0 133.3 0 100 0C66.7 0 33.3 0 16.7 0L0 0Z" fill="#8f5dc6"></path><path d="M0 85L16.7 84.5C33.3 84 66.7 83 100 82C133.3 81 166.7 80 200 79.3C233.3 78.7 266.7 78.3 300 79.7C333.3 81 366.7 84 400 88.5C433.3 93 466.7 99 500 97C533.3 95 566.7 85 600 84.3C633.3 83.7 666.7 92.3 700 98C733.3 103.7 766.7 106.3 800 105C833.3 103.7 866.7 98.3 883.3 95.7L900 93L900 0L883.3 0C866.7 0 833.3 0 800 0C766.7 0 733.3 0 700 0C666.7 0 633.3 0 600 0C566.7 0 533.3 0 500 0C466.7 0 433.3 0 400 0C366.7 0 333.3 0 300 0C266.7 0 233.3 0 200 0C166.7 0 133.3 0 100 0C66.7 0 33.3 0 16.7 0L0 0Z" fill="#9e6cd7"></path><path d="M0 40L16.7 41C33.3 42 66.7 44 100 43C133.3 42 166.7 38 200 40.3C233.3 42.7 266.7 51.3 300 55C333.3 58.7 366.7 57.3 400 55.7C433.3 54 466.7 52 500 52.8C533.3 53.7 566.7 57.3 600 60.3C633.3 63.3 666.7 65.7 700 60.7C733.3 55.7 766.7 43.3 800 41C833.3 38.7 866.7 46.3 883.3 50.2L900 54L900 0L883.3 0C866.7 0 833.3 0 800 0C766.7 0 733.3 0 700 0C666.7 0 633.3 0 600 0C566.7 0 533.3 0 500 0C466.7 0 433.3 0 400 0C366.7 0 333.3 0 300 0C266.7 0 233.3 0 200 0C166.7 0 133.3 0 100 0C66.7 0 33.3 0 16.7 0L0 0Z" fill="#ad7be9"></path></svg>